<mxfile host="app.diagrams.net" modified="2023-08-28T12:37:52.768Z" agent="Mozilla/5.0 (Macintosh; Intel Mac OS X 10_15_7) AppleWebKit/537.36 (KHTML, like Gecko) Chrome/116.0.0.0 Safari/537.36" etag="t0fWf5JbCPY9rxLT9L4J" version="21.6.9" type="github">
  <diagram name="第 1 页" id="1bHAu81TmFM9Un3zPxPm">
    <mxGraphModel dx="1562" dy="885" grid="1" gridSize="10" guides="1" tooltips="1" connect="1" arrows="1" fold="1" page="1" pageScale="1" pageWidth="827" pageHeight="700" math="0" shadow="0">
      <root>
        <mxCell id="0" />
        <mxCell id="1" parent="0" />
        <mxCell id="_WDkzngIwpoxSGNgMPWk-3" value="" style="rounded=1;whiteSpace=wrap;html=1;fillColor=#f5f5f5;fontColor=#333333;strokeColor=#666666;" parent="1" vertex="1">
          <mxGeometry x="10" y="10" width="790" height="330" as="geometry" />
        </mxCell>
        <mxCell id="_WDkzngIwpoxSGNgMPWk-1" value="&lt;font face=&quot;Times New Roman&quot;&gt;若点A( $x_1$,-3 ),B( $x_2$,-2 ),C( $x_3$,1)在反比例函数 $y=-\dfrac{k^{2}+1}{x}$的图象上,则$x_1$ ,$x_2$ ,$x_3$ 的大小关系是为____&lt;/font&gt;&lt;p style=&quot;margin: 0px; font-variant-numeric: normal; font-variant-east-asian: normal; font-variant-alternates: normal; font-kerning: auto; font-optical-sizing: auto; font-feature-settings: normal; font-variation-settings: normal; font-stretch: normal; font-size: 8.5px; line-height: normal; color: rgb(126, 167, 225);&quot; class=&quot;p2&quot;&gt;&lt;font face=&quot;Times New Roman&quot;&gt;If points A( $x_1$,-3 ), B( $x_2$,-2 ), C( $x_3$,1) are in the inverse proportional function $y=-\dfrac{k^{2}+1}{x }$, the size relationship of $x_1$ ,&lt;span style=&quot;background-color: initial;&quot;&gt;$x_2$ , $x_3$ is ____&lt;/span&gt;&lt;/font&gt;&lt;/p&gt;&lt;font face=&quot;Times New Roman&quot;&gt;A. $x_{1}&amp;lt;x_{2}&amp;lt;x_{3}$&amp;nbsp; &amp;nbsp; &amp;nbsp; &amp;nbsp; B. $x_{3}&amp;lt;x_{1}&amp;lt;x_{2} $&amp;nbsp; &amp;nbsp; &amp;nbsp; &amp;nbsp; C. $x_{2}&amp;lt;x_{1}&amp;lt;x_{3}$&amp;nbsp; &amp;nbsp; &amp;nbsp; &amp;nbsp; D. $x_{3}&amp;lt;x_{2}&amp;lt;x_{1}$&lt;br&gt;&lt;br&gt;让我们一步步思考:1. 首先,对于反比例函数 $y=-\frac{k^{2}+1}{x}$,有$-(k^2+1)&amp;lt;0$。因此,图象分别位于第二、四象限,每一个象限内,从左往右,y随x的增大而增大。&lt;/font&gt;&lt;p style=&quot;margin: 0px; font-variant-numeric: normal; font-variant-east-asian: normal; font-variant-alternates: normal; font-kerning: auto; font-optical-sizing: auto; font-feature-settings: normal; font-variation-settings: normal; font-stretch: normal; font-size: 8.5px; line-height: normal; color: rgb(126, 167, 225);&quot; class=&quot;p2&quot;&gt;&lt;font face=&quot;Times New Roman&quot;&gt;Let&#39;s think step by step: 1. First, for the inverse proportional function $y=-\frac{k^{2}+1}{x}$, there is $-(k^2+1)&amp;lt;0$. Therefore, the images are located&amp;nbsp;&lt;span style=&quot;background-color: initial;&quot;&gt;in the second and fourth quadrants respectively, and in each quadrant, from left to right, y increases with the increase of x.&lt;/span&gt;&lt;/font&gt;&lt;/p&gt;&lt;p style=&quot;margin: 0px; font-variant-numeric: normal; font-variant-east-asian: normal; font-variant-alternates: normal; font-kerning: auto; font-optical-sizing: auto; font-feature-settings: normal; font-variation-settings: normal; font-stretch: normal; font-size: 8.5px; line-height: normal; color: rgb(126, 167, 225);&quot; class=&quot;p2&quot;&gt;&lt;span style=&quot;background-color: initial;&quot;&gt;&lt;font face=&quot;Times New Roman&quot;&gt;&lt;br&gt;&lt;/font&gt;&lt;/span&gt;&lt;/p&gt;&lt;font face=&quot;Times New Roman&quot;&gt;2. 其次我们观察点A、B、C的y坐标,发现A的y坐标为-3,B的y坐标为-2,C的y坐标为1。根据反比例函数的性质,我们可以得出:A,B位于第四象限,且&lt;br&gt;$x_2&amp;gt;x_1&amp;gt;0$;C位于第二象限,则$x_3&amp;lt;0$。&lt;/font&gt;&lt;p style=&quot;margin: 0px; font-variant-numeric: normal; font-variant-east-asian: normal; font-variant-alternates: normal; font-kerning: auto; font-optical-sizing: auto; font-feature-settings: normal; font-variation-settings: normal; font-stretch: normal; font-size: 8.5px; line-height: normal; color: rgb(126, 167, 225);&quot; class=&quot;p2&quot;&gt;&lt;font face=&quot;Times New Roman&quot;&gt;2. Next, we observe the y-coordinates of points A, B, and C, and find that the y-coordinate of A is -3, the y-coordinate of B is -2, and the y-coordinate&lt;span style=&quot;background-color: initial;&quot;&gt;of C is 1. According to the nature of the inverse proportional function, we can draw: A, B are located in the fourth quadrant, and $x_2&amp;gt;x_1&amp;gt;0$; C is&amp;nbsp;&lt;/span&gt;&lt;span style=&quot;background-color: initial;&quot;&gt;located in the second quadrant, then $x_3&amp;lt;0$.&lt;/span&gt;&lt;/font&gt;&lt;/p&gt;&lt;p style=&quot;margin: 0px; font-variant-numeric: normal; font-variant-east-asian: normal; font-variant-alternates: normal; font-kerning: auto; font-optical-sizing: auto; font-feature-settings: normal; font-variation-settings: normal; font-stretch: normal; font-size: 8.5px; line-height: normal; color: rgb(126, 167, 225);&quot; class=&quot;p2&quot;&gt;&lt;span style=&quot;background-color: initial;&quot;&gt;&lt;font face=&quot;Times New Roman&quot;&gt;&lt;br&gt;&lt;/font&gt;&lt;/span&gt;&lt;/p&gt;&lt;font face=&quot;Times New Roman&quot;&gt;3. 最后,我们将第2步的结论整理:$x_{3}&amp;lt;x_{1}&amp;lt;x_{2}$。&lt;/font&gt;&lt;p style=&quot;margin: 0px; font-variant-numeric: normal; font-variant-east-asian: normal; font-variant-alternates: normal; font-kerning: auto; font-optical-sizing: auto; font-feature-settings: normal; font-variation-settings: normal; font-stretch: normal; font-size: 8.5px; line-height: normal; color: rgb(126, 167, 225);&quot; class=&quot;p2&quot;&gt;&lt;font face=&quot;Times New Roman&quot;&gt;3. Finally, we organize the conclusion of step 2: $x_{3}&amp;lt;x_{1}&amp;lt;x_{2}$.&lt;/font&gt;&lt;/p&gt;&lt;font face=&quot;Times New Roman&quot;&gt;故答案是: B&lt;/font&gt;&lt;p style=&quot;margin: 0px; font-variant-numeric: normal; font-variant-east-asian: normal; font-variant-alternates: normal; font-kerning: auto; font-optical-sizing: auto; font-feature-settings: normal; font-variation-settings: normal; font-stretch: normal; font-size: 8.5px; line-height: normal; color: rgb(126, 167, 225);&quot; class=&quot;p2&quot;&gt;&lt;font face=&quot;Times New Roman&quot;&gt;So the answer is B.&lt;/font&gt;&lt;/p&gt;" style="text;html=1;strokeColor=none;fillColor=none;align=left;verticalAlign=middle;whiteSpace=wrap;rounded=0;" parent="1" vertex="1">
          <mxGeometry x="25" y="25" width="760" height="300" as="geometry" />
        </mxCell>
        <mxCell id="_WDkzngIwpoxSGNgMPWk-4" value="&lt;font face=&quot;Times New Roman&quot; style=&quot;font-size: 18px;&quot;&gt;A CoT demonstration from CEval-Math&lt;/font&gt;" style="text;html=1;strokeColor=none;fillColor=none;align=center;verticalAlign=middle;whiteSpace=wrap;rounded=0;" parent="1" vertex="1">
          <mxGeometry x="259" y="340" width="310" height="30" as="geometry" />
        </mxCell>
        <mxCell id="_WDkzngIwpoxSGNgMPWk-7" value="" style="rounded=1;whiteSpace=wrap;html=1;fillColor=#f5f5f5;fontColor=#333333;strokeColor=#666666;" parent="1" vertex="1">
          <mxGeometry x="10" y="390" width="790" height="260" as="geometry" />
        </mxCell>
        <mxCell id="_WDkzngIwpoxSGNgMPWk-6" value="&lt;div style=&quot;text-align: left;&quot;&gt;&lt;span style=&quot;background-color: initial;&quot;&gt;&lt;font face=&quot;Times New Roman&quot;&gt;有5筐苹果的重量相等，如果从每筐中取出10kg，那么剩下的苹果相当于原来3筐的重量，原来每筐苹果重多少千克？&lt;/font&gt;&lt;/span&gt;&lt;/div&gt;&lt;div style=&quot;text-align: left;&quot;&gt;&lt;span style=&quot;background-color: initial;&quot;&gt;&lt;font face=&quot;Times New Roman&quot; color=&quot;#7ea6e0&quot;&gt;Five baskets of apples have the same weight. If 10kg is taken out of each basket, the remaining apples are equivalent to the weight of three baskets of apples. What is the weight of each basket of apples originally?&lt;/font&gt;&lt;/span&gt;&lt;/div&gt;&lt;div style=&quot;text-align: left;&quot;&gt;&lt;span style=&quot;background-color: initial;&quot;&gt;&lt;font face=&quot;Times New Roman&quot;&gt;&lt;br&gt;&lt;/font&gt;&lt;/span&gt;&lt;/div&gt;&lt;div style=&quot;text-align: left;&quot;&gt;&lt;font face=&quot;Times New Roman&quot;&gt;&lt;span style=&quot;background-color: initial;&quot;&gt;让我们一步步思考:&lt;/span&gt;&lt;span style=&quot;background-color: initial;&quot;&gt;设每筐苹果重x千克,&lt;/span&gt;&lt;/font&gt;&lt;/div&gt;&lt;div style=&quot;text-align: left;&quot;&gt;&lt;span style=&quot;background-color: initial;&quot;&gt;&lt;font face=&quot;Times New Roman&quot; color=&quot;#7ea6e0&quot;&gt;Let&#39;s think step by step. Assume that each basket of apples weighs x kilograms,&lt;/font&gt;&lt;/span&gt;&lt;/div&gt;&lt;div style=&quot;text-align: left;&quot;&gt;&lt;span style=&quot;background-color: initial;&quot;&gt;&lt;font face=&quot;Times New Roman&quot;&gt;&lt;br&gt;&lt;/font&gt;&lt;/span&gt;&lt;/div&gt;&lt;div style=&quot;text-align: left;&quot;&gt;&lt;span style=&quot;background-color: initial;&quot;&gt;&lt;font face=&quot;Times New Roman&quot;&gt;取出10kg后，每筐苹果的重量变为x-10千克，剩下的苹果相当于原来3筐的重量，即剩下的苹果总重量为5(x-10) = 3x千克。&lt;/font&gt;&lt;/span&gt;&lt;/div&gt;&lt;div style=&quot;text-align: left;&quot;&gt;&lt;span style=&quot;background-color: initial;&quot;&gt;&lt;font face=&quot;Times New Roman&quot; color=&quot;#7ea6e0&quot;&gt;After taking out 10kg from each basket, the weight of each basket of apples becomes x-10 kilograms. The remaining apples are equivalent to the weight of three baskets of apples, which is 5(x-10) = 3x kilograms.&lt;/font&gt;&lt;/span&gt;&lt;/div&gt;&lt;div style=&quot;text-align: left;&quot;&gt;&lt;span style=&quot;background-color: initial;&quot;&gt;&lt;font face=&quot;Times New Roman&quot;&gt;&lt;br&gt;&lt;/font&gt;&lt;/span&gt;&lt;/div&gt;&lt;div style=&quot;text-align: left;&quot;&gt;&lt;font face=&quot;Times New Roman&quot;&gt;&lt;span style=&quot;background-color: initial;&quot;&gt;因此，根据题意可得：5x - 50 = 3x,&amp;nbsp;化简得：2x = 50,&amp;nbsp;&lt;/span&gt;&lt;span style=&quot;background-color: initial;&quot;&gt;解得：x = 25.&lt;/span&gt;&lt;/font&gt;&lt;/div&gt;&lt;div style=&quot;text-align: left;&quot;&gt;&lt;span style=&quot;background-color: initial;&quot;&gt;&lt;font face=&quot;Times New Roman&quot; color=&quot;#7ea6e0&quot;&gt;Therefore, according to the problem, we have 5x - 50 = 3x, which simplifies to 2x = 50. Solving for x, we get x = 25.&lt;/font&gt;&lt;/span&gt;&lt;/div&gt;&lt;div style=&quot;text-align: left;&quot;&gt;&lt;span style=&quot;background-color: initial;&quot;&gt;&lt;font face=&quot;Times New Roman&quot;&gt;&lt;br&gt;&lt;/font&gt;&lt;/span&gt;&lt;/div&gt;&lt;div style=&quot;text-align: left;&quot;&gt;&lt;font face=&quot;Times New Roman&quot;&gt;&lt;span style=&quot;background-color: initial;&quot;&gt;故答案是: 25&lt;/span&gt;&lt;/font&gt;&lt;/div&gt;&lt;div style=&quot;text-align: left;&quot;&gt;&lt;span style=&quot;background-color: initial;&quot;&gt;&lt;font face=&quot;Times New Roman&quot; color=&quot;#7ea6e0&quot;&gt;The answer is 25.&lt;/font&gt;&lt;/span&gt;&lt;/div&gt;" style="text;html=1;strokeColor=none;fillColor=none;align=center;verticalAlign=middle;whiteSpace=wrap;rounded=0;" parent="1" vertex="1">
          <mxGeometry x="30" y="390" width="730" height="257" as="geometry" />
        </mxCell>
        <mxCell id="_WDkzngIwpoxSGNgMPWk-8" value="&lt;font face=&quot;Times New Roman&quot; style=&quot;font-size: 18px;&quot;&gt;A CoT demonstration from APE5k&lt;/font&gt;" style="text;html=1;strokeColor=none;fillColor=none;align=center;verticalAlign=middle;whiteSpace=wrap;rounded=0;" parent="1" vertex="1">
          <mxGeometry x="259" y="660" width="310" height="30" as="geometry" />
        </mxCell>
      </root>
    </mxGraphModel>
  </diagram>
</mxfile>
